<svg width="28" height="28" viewBox="0 0 28 28" fill="none" xmlns="http://www.w3.org/2000/svg">
<path opacity="0.4" d="M22.4467 6.51015H21.98L18.0367 2.56682C17.7217 2.25182 17.2084 2.25182 16.8817 2.56682C16.5667 2.88182 16.5667 3.39515 16.8817 3.72182L19.67 6.51015H8.33004L11.1184 3.72182C11.4334 3.40682 11.4334 2.89348 11.1184 2.56682C10.8034 2.25182 10.29 2.25182 9.96337 2.56682L6.03171 6.51015H5.56504C4.51504 6.51015 2.33337 6.51015 2.33337 9.49682C2.33337 10.6285 2.56671 11.3751 3.05671 11.8651C3.33671 12.1568 3.67504 12.3085 4.03671 12.3901C4.37504 12.4718 4.73671 12.4835 5.08671 12.4835H22.9134C23.275 12.4835 23.6134 12.4601 23.94 12.3901C24.92 12.1568 25.6667 11.4568 25.6667 9.49682C25.6667 6.51015 23.485 6.51015 22.4467 6.51015Z" fill="#FF914D"/>
<path d="M22.925 12.4835H5.08662C4.73662 12.4835 4.37495 12.4718 4.03662 12.3901L5.50662 21.3501C5.83329 23.3568 6.70829 25.6668 10.5933 25.6668H17.1383C21.07 25.6668 21.77 23.6951 22.19 21.4901L23.9516 12.3901C23.625 12.4601 23.275 12.4835 22.925 12.4835ZM12.3783 20.0201C12.3783 20.4751 12.0166 20.8368 11.5616 20.8368C11.1066 20.8368 10.745 20.4751 10.745 20.0201V16.1701C10.745 15.7151 11.1066 15.3535 11.5616 15.3535C12.0166 15.3535 12.3783 15.7151 12.3783 16.1701V20.0201ZM17.3716 20.0201C17.3716 20.4751 17.01 20.8368 16.555 20.8368C16.1 20.8368 15.7383 20.4751 15.7383 20.0201V16.1701C15.7383 15.7151 16.1 15.3535 16.555 15.3535C17.01 15.3535 17.3716 15.7151 17.3716 16.1701V20.0201Z" fill="#FF914D"/>
</svg>
