<svg width="25" height="25" viewBox="0 0 25 25" fill="none" xmlns="http://www.w3.org/2000/svg">
<path d="M4.85681 6.18556C4.64469 6.18556 4.42141 6.09625 4.26512 5.93995C3.94136 5.61619 3.94136 5.08032 4.26512 4.75656L8.31767 0.704C8.64143 0.380242 9.17731 0.380242 9.50107 0.704C9.82483 1.02776 9.82483 1.56363 9.50107 1.88739L5.44851 5.93995C5.28105 6.09625 5.06893 6.18556 4.85681 6.18556Z" fill="black"/>
<path d="M20.0624 6.18556C19.8503 6.18556 19.6382 6.10741 19.4707 5.93995L15.4182 1.88739C15.0944 1.56363 15.0944 1.02776 15.4182 0.704C15.7419 0.380242 16.2778 0.380242 16.6016 0.704L20.6541 4.75656C20.9779 5.08032 20.9779 5.61619 20.6541 5.93995C20.4978 6.09625 20.2745 6.18556 20.0624 6.18556Z" fill="black"/>
<path d="M21.6255 10.8971C21.5473 10.8971 21.4692 10.8971 21.391 10.8971H3.5285C2.74701 10.9082 1.85388 10.9082 1.20637 10.2607C0.69282 9.75832 0.458374 8.97683 0.458374 7.82693C0.458374 4.75681 2.70235 4.75681 3.7741 4.75681H21.1454C22.2172 4.75681 24.4611 4.75681 24.4611 7.82693C24.4611 8.988 24.2267 9.75832 23.7131 10.2607C23.1326 10.8412 22.3511 10.8971 21.6255 10.8971ZM21.4022 9.22244C21.9046 9.23361 22.3735 9.23361 22.5298 9.07731C22.6079 8.99916 22.7754 8.73122 22.7754 7.82693C22.7754 6.56539 22.4628 6.43142 21.1342 6.43142H3.7741C2.44558 6.43142 2.13299 6.56539 2.13299 7.82693C2.13299 8.73122 2.31161 8.99916 2.3786 9.07731C2.53489 9.22244 3.01495 9.22244 3.50617 9.22244H21.4022Z" fill="black"/>
<path d="M9.95901 19.4931C9.50129 19.4931 9.12171 19.1135 9.12171 18.6558V14.6926C9.12171 14.2348 9.50129 13.8553 9.95901 13.8553C10.4167 13.8553 10.7963 14.2348 10.7963 14.6926V18.6558C10.7963 19.1247 10.4167 19.4931 9.95901 19.4931Z" fill="black"/>
<path d="M15.0944 19.4931C14.6367 19.4931 14.2571 19.1135 14.2571 18.6558V14.6926C14.2571 14.2348 14.6367 13.8553 15.0944 13.8553C15.5521 13.8553 15.9317 14.2348 15.9317 14.6926V18.6558C15.9317 19.1247 15.5521 19.4931 15.0944 19.4931Z" fill="black"/>
<path d="M15.6862 24.4612H8.95423C4.95749 24.4612 4.06437 22.0832 3.71828 20.0179L2.14415 10.361C2.066 9.90322 2.37859 9.47899 2.83632 9.40084C3.29405 9.32269 3.71828 9.63529 3.79643 10.093L5.37057 19.7388C5.69432 21.7148 6.36417 22.7866 8.95423 22.7866H15.6862C18.5553 22.7866 18.8791 21.7818 19.2475 19.8393L21.1231 10.0707C21.2124 9.61296 21.6478 9.31153 22.1055 9.41201C22.5632 9.50132 22.8535 9.93672 22.7642 10.3944L20.8886 20.163C20.4532 22.4293 19.7276 24.4612 15.6862 24.4612Z" fill="black"/>
</svg>
