<svg width="28" height="28" viewBox="0 0 28 28" fill="none" xmlns="http://www.w3.org/2000/svg">
<path opacity="0.4" d="M25.2701 12.1801L24.1268 17.0568C23.1468 21.2684 21.2101 22.9718 17.5701 22.6218C16.9868 22.5751 16.3568 22.4701 15.6801 22.3068L13.7201 21.8401C8.85513 20.6851 7.35013 18.2818 8.49346 13.4051L9.6368 8.51676C9.87013 7.52509 10.1501 6.66176 10.5001 5.95009C11.8651 3.12676 14.1868 2.36842 18.0835 3.29009L20.0318 3.74509C24.9201 4.88842 26.4135 7.30342 25.2701 12.1801Z" fill="#FF914D"/>
<path opacity="0.5" d="M17.5699 22.6219C16.8466 23.1119 15.9366 23.5202 14.8282 23.8819L12.9849 24.4885C8.35324 25.9819 5.91491 24.7335 4.40991 20.1019L2.91658 15.4935C1.42324 10.8619 2.65991 8.41186 7.29158 6.91853L9.13491 6.31186C9.61324 6.1602 10.0682 6.03186 10.4999 5.9502C10.1499 6.66186 9.86991 7.5252 9.63658 8.51686L8.49324 13.4052C7.34991 18.2819 8.85491 20.6852 13.7199 21.8402L15.6799 22.3069C16.3566 22.4702 16.9866 22.5752 17.5699 22.6219Z" fill="#FF914D"/>
<path d="M20.405 12.2617C20.335 12.2617 20.265 12.25 20.1833 12.2383L14.525 10.8033C14.0583 10.6867 13.7783 10.2083 13.895 9.74165C14.0116 9.27498 14.49 8.99498 14.9566 9.11165L20.615 10.5467C21.0816 10.6633 21.3616 11.1417 21.245 11.6083C21.1516 11.9933 20.79 12.2617 20.405 12.2617Z" fill="#FF914D"/>
<path d="M16.9867 16.2049C16.9167 16.2049 16.8467 16.1932 16.7651 16.1815L13.3701 15.3182C12.9034 15.2015 12.6234 14.7232 12.7401 14.2565C12.8567 13.7899 13.3351 13.5099 13.8017 13.6265L17.1967 14.4899C17.6634 14.6065 17.9434 15.0849 17.8267 15.5515C17.7334 15.9482 17.3834 16.2049 16.9867 16.2049Z" fill="#FF914D"/>
</svg>
