<svg width="28" height="28" viewBox="0 0 28 28" fill="none" xmlns="http://www.w3.org/2000/svg">
<path d="M20.755 26.5416H7.24504C4.04837 26.5416 1.45837 23.9399 1.45837 20.7432V12.0982C1.45837 10.5116 2.43837 8.51655 3.69837 7.53655L9.98671 2.63655C11.8767 1.16656 14.8984 1.09655 16.8584 2.47322L24.0684 7.52489C25.4567 8.49322 26.5417 10.5699 26.5417 12.2616V20.7549C26.5417 23.9399 23.9517 26.5416 20.755 26.5416ZM11.06 4.01322L4.77171 8.91322C3.94337 9.56655 3.20837 11.0482 3.20837 12.0982V20.7432C3.20837 22.9716 5.01671 24.7916 7.24504 24.7916H20.755C22.9834 24.7916 24.7917 22.9832 24.7917 20.7549V12.2616C24.7917 11.1416 23.9867 9.58989 23.065 8.95989L15.855 3.90822C14.525 2.97489 12.3317 3.02155 11.06 4.01322Z" fill="black"/>
<path d="M14 21.875C13.5217 21.875 13.125 21.4783 13.125 21V17.5C13.125 17.0217 13.5217 16.625 14 16.625C14.4783 16.625 14.875 17.0217 14.875 17.5V21C14.875 21.4783 14.4783 21.875 14 21.875Z" fill="black"/>
</svg>
