<svg width="28" height="28" viewBox="0 0 28 28" fill="none" xmlns="http://www.w3.org/2000/svg">
<path opacity="0.4" d="M25.6666 7.00001V9.82335C25.6666 11.6667 24.5 12.8333 22.6566 12.8333H18.6666V4.67835C18.6666 3.38335 19.7283 2.32168 21.0233 2.33335C22.295 2.34501 23.4616 2.85835 24.3016 3.69835C25.1416 4.55001 25.6666 5.71668 25.6666 7.00001Z" fill="#FF914D"/>
<path d="M2.33337 8.16659V24.4999C2.33337 25.4683 3.43004 26.0166 4.20004 25.4333L6.19504 23.9399C6.66171 23.5899 7.31504 23.6366 7.73504 24.0566L9.67171 26.0049C10.1267 26.4599 10.8734 26.4599 11.3284 26.0049L13.2884 24.0449C13.6967 23.6366 14.35 23.5899 14.805 23.9399L16.8 25.4333C17.57 26.0049 18.6667 25.4566 18.6667 24.4999V4.66659C18.6667 3.38325 19.7167 2.33325 21 2.33325H8.16671H7.00004C3.50004 2.33325 2.33337 4.42159 2.33337 6.99992V8.16659Z" fill="#FF914D"/>
<path d="M14 14.3032H10.5C10.0217 14.3032 9.625 14.6999 9.625 15.1782C9.625 15.6566 10.0217 16.0532 10.5 16.0532H14C14.4783 16.0532 14.875 15.6566 14.875 15.1782C14.875 14.6999 14.4783 14.3032 14 14.3032Z" fill="white"/>
<path d="M10.5 11.3867H14C14.4783 11.3867 14.875 10.9901 14.875 10.5117C14.875 10.0334 14.4783 9.63672 14 9.63672H10.5C10.0217 9.63672 9.625 10.0334 9.625 10.5117C9.625 10.9901 10.0217 11.3867 10.5 11.3867Z" fill="white"/>
<path d="M6.96501 9.34497C6.31167 9.34497 5.79834 9.86997 5.79834 10.5116C5.79834 11.1533 6.32334 11.6783 6.96501 11.6783C7.60667 11.6783 8.13167 11.1533 8.13167 10.5116C8.13167 9.86997 7.60667 9.34497 6.96501 9.34497Z" fill="white"/>
<path d="M6.96501 14.0117C6.31167 14.0117 5.79834 14.5367 5.79834 15.1784C5.79834 15.8201 6.32334 16.3451 6.96501 16.3451C7.60667 16.3451 8.13167 15.8201 8.13167 15.1784C8.13167 14.5367 7.60667 14.0117 6.96501 14.0117Z" fill="white"/>
</svg>
