<svg width="28" height="28" viewBox="0 0 28 28" fill="none" xmlns="http://www.w3.org/2000/svg">
<path d="M22.6566 13.7083H18.6666C18.1883 13.7083 17.7916 13.3116 17.7916 12.8333V4.67825C17.7916 3.81492 18.13 3.00992 18.7366 2.40325C19.3433 1.79659 20.1483 1.45825 21.0116 1.45825H21.0233C22.4816 1.46992 23.8583 2.04158 24.9083 3.07992C25.9583 4.14158 26.53 5.54159 26.53 6.99992V9.82325C26.5416 12.1449 24.9783 13.7083 22.6566 13.7083ZM19.5416 11.9583H22.6566C24.01 11.9583 24.7916 11.1766 24.7916 9.82325V6.99992C24.7916 5.99659 24.395 5.03992 23.6833 4.31659C22.9716 3.61659 22.015 3.21992 21.0233 3.20825C21.0233 3.20825 21.0233 3.20825 21.0116 3.20825C20.6266 3.20825 20.2533 3.35992 19.9733 3.63992C19.6933 3.91992 19.5416 4.28158 19.5416 4.67825V11.9583V11.9583Z" fill="black"/>
<path d="M10.5 27.2183C9.95171 27.2183 9.43837 27.0082 9.05337 26.6116L7.11671 24.6633C7.01171 24.5583 6.84837 24.5466 6.73171 24.6399L4.72504 26.1333C4.10671 26.5999 3.29004 26.6816 2.59004 26.3316C1.89004 25.9816 1.45837 25.2816 1.45837 24.4999V6.99992C1.45837 3.47659 3.47671 1.45825 7.00004 1.45825H21C21.4784 1.45825 21.875 1.85492 21.875 2.33325C21.875 2.81159 21.4784 3.20825 21 3.20825C20.195 3.20825 19.5417 3.86159 19.5417 4.66659V24.4999C19.5417 25.2816 19.11 25.9816 18.41 26.3316C17.71 26.6816 16.8934 26.6116 16.275 26.1449L14.28 24.6516C14.1634 24.5582 14 24.5816 13.9067 24.6749L11.9467 26.6349C11.5617 27.0083 11.0484 27.2183 10.5 27.2183ZM6.89504 22.8316C7.43171 22.8316 7.95671 23.0299 8.35337 23.4382L10.29 25.3866C10.36 25.4566 10.4534 25.4683 10.5 25.4683C10.5467 25.4683 10.64 25.4566 10.71 25.3866L12.67 23.4266C13.3934 22.7033 14.5367 22.6333 15.3417 23.2516L17.325 24.7332C17.4534 24.8266 17.57 24.7916 17.6284 24.7566C17.6867 24.7216 17.7917 24.6516 17.7917 24.4999V4.66659C17.7917 4.14159 17.92 3.63992 18.1417 3.20825H7.00004C4.41004 3.20825 3.20837 4.40992 3.20837 6.99992V24.4999C3.20837 24.6633 3.31337 24.7333 3.37171 24.7683C3.44171 24.8033 3.55837 24.8266 3.67504 24.7332L5.67004 23.2399C6.03171 22.9716 6.46337 22.8316 6.89504 22.8316Z" fill="black"/>
<path d="M14 16.0532H10.5C10.0217 16.0532 9.625 15.6566 9.625 15.1782C9.625 14.6999 10.0217 14.3032 10.5 14.3032H14C14.4783 14.3032 14.875 14.6999 14.875 15.1782C14.875 15.6566 14.4783 16.0532 14 16.0532Z" fill="black"/>
<path d="M14 11.3867H10.5C10.0217 11.3867 9.625 10.9901 9.625 10.5117C9.625 10.0334 10.0217 9.63672 10.5 9.63672H14C14.4783 9.63672 14.875 10.0334 14.875 10.5117C14.875 10.9901 14.4783 11.3867 14 11.3867Z" fill="black"/>
<path d="M6.96525 11.6783C6.32358 11.6783 5.79858 11.1533 5.79858 10.5116C5.79858 9.86997 6.32358 9.34497 6.96525 9.34497C7.60692 9.34497 8.13192 9.86997 8.13192 10.5116C8.13192 11.1533 7.60692 11.6783 6.96525 11.6783Z" fill="black"/>
<path d="M6.96525 16.3451C6.32358 16.3451 5.79858 15.8201 5.79858 15.1784C5.79858 14.5367 6.32358 14.0117 6.96525 14.0117C7.60692 14.0117 8.13192 14.5367 8.13192 15.1784C8.13192 15.8201 7.60692 16.3451 6.96525 16.3451Z" fill="black"/>
</svg>
