<svg width="28" height="28" viewBox="0 0 28 28" fill="none" xmlns="http://www.w3.org/2000/svg">
<path d="M13.4167 24.4999C19.5379 24.4999 24.5 19.5377 24.5 13.4166C24.5 7.29543 19.5379 2.33325 13.4167 2.33325C7.29555 2.33325 2.33337 7.29543 2.33337 13.4166C2.33337 19.5377 7.29555 24.4999 13.4167 24.4999Z" fill="#FF914D"/>
<path d="M24.8501 25.6667C24.6401 25.6667 24.4301 25.585 24.2784 25.4333L22.1084 23.2633C21.7934 22.9483 21.7934 22.435 22.1084 22.1083C22.4234 21.7933 22.9368 21.7933 23.2634 22.1083L25.4334 24.2783C25.7484 24.5933 25.7484 25.1067 25.4334 25.4333C25.2701 25.585 25.0601 25.6667 24.8501 25.6667Z" fill="#FF914D"/>
<path d="M16.9166 12.5417H9.91663C9.43829 12.5417 9.04163 12.1451 9.04163 11.6667C9.04163 11.1884 9.43829 10.7917 9.91663 10.7917H16.9166C17.395 10.7917 17.7916 11.1884 17.7916 11.6667C17.7916 12.1451 17.395 12.5417 16.9166 12.5417Z" fill="white"/>
<path d="M13.4166 16.0417H9.91663C9.43829 16.0417 9.04163 15.6451 9.04163 15.1667C9.04163 14.6884 9.43829 14.2917 9.91663 14.2917H13.4166C13.895 14.2917 14.2916 14.6884 14.2916 15.1667C14.2916 15.6451 13.895 16.0417 13.4166 16.0417Z" fill="white"/>
</svg>
