<svg width="28" height="28" viewBox="0 0 28 28" fill="none" xmlns="http://www.w3.org/2000/svg">
<path d="M23.3334 6.70825H16.3334C15.855 6.70825 15.4584 6.31159 15.4584 5.83325C15.4584 5.35492 15.855 4.95825 16.3334 4.95825H23.3334C23.8117 4.95825 24.2084 5.35492 24.2084 5.83325C24.2084 6.31159 23.8117 6.70825 23.3334 6.70825Z" fill="black"/>
<path d="M19.8334 10.2083H16.3334C15.855 10.2083 15.4584 9.81159 15.4584 9.33325C15.4584 8.85492 15.855 8.45825 16.3334 8.45825H19.8334C20.3117 8.45825 20.7084 8.85492 20.7084 9.33325C20.7084 9.81159 20.3117 10.2083 19.8334 10.2083Z" fill="black"/>
<path d="M13.4167 25.3749C6.82504 25.3749 1.45837 20.0083 1.45837 13.4166C1.45837 6.82492 6.82504 1.45825 13.4167 1.45825C13.895 1.45825 14.2917 1.85492 14.2917 2.33325C14.2917 2.81159 13.895 3.20825 13.4167 3.20825C7.78171 3.20825 3.20837 7.79325 3.20837 13.4166C3.20837 19.0399 7.78171 23.6249 13.4167 23.6249C19.0517 23.6249 23.625 19.0399 23.625 13.4166C23.625 12.9383 24.0217 12.5416 24.5 12.5416C24.9784 12.5416 25.375 12.9383 25.375 13.4166C25.375 20.0083 20.0084 25.3749 13.4167 25.3749Z" fill="black"/>
<path d="M25.6666 26.5416C25.4449 26.5416 25.2233 26.4599 25.0483 26.2849L22.7149 23.9516C22.3766 23.6133 22.3766 23.0533 22.7149 22.7149C23.0533 22.3766 23.6133 22.3766 23.9516 22.7149L26.2849 25.0483C26.6233 25.3866 26.6233 25.9466 26.2849 26.2849C26.1099 26.4599 25.8883 26.5416 25.6666 26.5416Z" fill="black"/>
</svg>
